<?xml version="1.0" encoding="UTF-8" standalone="no"?>
<svg width="24px" height="24px" viewBox="0 0 24 24" version="1.1" xmlns="http://www.w3.org/2000/svg" xmlns:xlink="http://www.w3.org/1999/xlink">
    <!-- Generator: Sketch 45.2 (43514) - http://www.bohemiancoding.com/sketch -->
    <title>icCafe</title>
    <desc>Created with Sketch.</desc>
    <defs></defs>
    <g id="Symbols" stroke="none" stroke-width="1" fill="none" fill-rule="evenodd">
        <g id="icCafe" fill-rule="nonzero" fill="#8E9193">
            <path d="M0,2.8950029 L0,21.1049971 C0,22.701798 1.29979862,24 2.89655172,24 L6.62068966,24 L21.1034487,24 C22.700203,24 24.0000012,22.701798 24.0000012,21.1049971 L24.0000012,2.8950029 C24.0000012,1.29820201 22.700203,4.70176749e-14 21.1034487,4.70176749e-14 L2.89655172,4.70176749e-14 C1.29979862,0 0,1.29820201 0,2.8950029 Z M2.89655172,0.823529412 L21.1034487,0.823529412 C22.2557433,0.823529412 23.172415,1.73394118 23.172415,2.88235294 L23.172415,21.0127771 C23.172415,22.1611888 22.2557437,23.0716006 21.1034487,23.0716006 L2.89655172,23.0716006 C1.74425793,23.0716006 0.827586207,22.1611888 0.827586207,21.0127771 L0.827586207,2.88235294 C0.827586207,1.73394118 1.74425793,0.823529412 2.89655172,0.823529412 Z" id="Shape"></path>
            <g id="noun_1117662_cc" transform="translate(6.000000, 4.000000)">
                <path d="M2.81078947,0.115555556 C1.29684211,0.115555556 0.318421053,3.52 0.318421053,4.6962963 C0.321315789,5.95496296 1.21289474,6.99911111 2.38468421,7.20651852 C2.26368421,7.68 2.12763158,8.64888889 1.97710526,10.6548148 C1.83815789,12.4651852 1.73684211,14.3674074 1.73684211,14.6192593 C1.73684211,15.218963 2.21157895,15.7048889 2.79747368,15.7048889 C3.38336842,15.7048889 3.85810526,15.218963 3.85810526,14.6192593 C3.85810526,14.3674074 3.76836842,12.4651852 3.63231579,10.6548148 C3.47889474,8.64888889 3.34284211,7.69185185 3.20968421,7.20888889 C4.39652632,6.99911111 5.28810526,5.95437037 5.291,4.69688889 C5.30257895,3.52 4.32126316,0.115555556 2.81021053,0.115555556 L2.81078947,0.115555556 Z M2.81078947,15.1140741 C2.80731579,15.1140741 2.80326316,15.1140741 2.79921053,15.1140741 C2.53231579,15.1140741 2.31578947,14.8924444 2.31578947,14.6192593 C2.31578947,14.6192593 2.31578947,14.6192593 2.31578947,14.6192593 C2.31578947,14.0562963 2.53868421,9.91407407 2.79631579,8.10074074 C3.05394737,9.92296296 3.27684211,14.0651852 3.27684211,14.6192593 C3.27568421,14.8853333 3.06957895,15.101037 2.81194737,15.1111111 L2.81078947,15.1140741 Z M2.81078947,6.65777778 C1.75478947,6.656 0.899105263,5.78014815 0.897368421,4.69925926 C0.897368421,3.47851852 1.87868421,0.711111111 2.81078947,0.711111111 C3.74289474,0.711111111 4.72421053,3.47851852 4.72421053,4.69925926 C4.72073684,5.77896296 3.86563158,6.65303704 2.81078947,6.65481481 L2.81078947,6.65777778 Z M11.1923684,1.41333333 C11.1246316,1.09688889 11.0702105,0.715259259 11.0406842,0.325925926 L10.46,0.296296296 C10.4877895,0.744888889 10.5445263,1.1602963 10.6290526,1.56444444 C10.8623684,2.94814815 11.2328947,5.12592593 10.4165789,6.11851852 C10.1207368,6.45096296 9.69578947,6.65896296 9.22336842,6.65896296 C9.18168421,6.65896296 9.14057895,6.65718519 9.10005263,6.65422222 C9.06705263,6.65777778 9.02247368,6.65955556 8.97731579,6.65955556 C8.50605263,6.65955556 8.08168421,6.45214815 7.787,6.12207407 C6.96952632,5.1282963 7.34005263,2.95051852 7.58321053,1.51051852 C7.65615789,1.1602963 7.71115789,0.744296296 7.73547368,0.319407407 L7.15768421,0.295703704 C7.12757895,0.712296296 7.07373684,1.09214815 6.99731579,1.4637037 C6.74373684,2.96237037 6.34715789,5.30014815 7.33715789,6.51792593 C7.67178947,6.91259259 8.14478947,7.17688889 8.67742105,7.23140741 C8.55005263,7.70607407 8.41689474,8.67496296 8.26347368,10.669037 C8.12452632,12.4794074 8.03768421,14.3816296 8.03768421,14.6334815 C8.03768421,15.2331852 8.51242105,15.7191111 9.09831579,15.7191111 C9.68421053,15.7191111 10.1589474,15.2331852 10.1589474,14.6334815 C10.1589474,14.3816296 10.0692105,12.4794074 9.93315789,10.669037 C9.78263158,8.67496296 9.64368421,7.70607407 9.51052632,7.232 C10.0518421,7.17688889 10.5248421,6.91259259 10.8571579,6.5202963 C11.8494737,5.30014815 11.4528947,2.96237037 11.1894737,1.40977778 L11.1923684,1.41333333 Z M9.10526316,15.1111111 C8.84068421,15.1093333 8.62647368,14.8900741 8.62473684,14.6192593 C8.62473684,14.0562963 8.84763158,9.91407407 9.10526316,8.10074074 C9.36289474,9.92296296 9.58578947,14.0651852 9.58578947,14.6192593 C9.58405263,14.8900741 9.36984211,15.1093333 9.10526316,15.1111111 Z M8.84473684,4.35555556 L8.26578947,4.35555556 L8.26578947,0.296296296 L8.84473684,0.296296296 L8.84473684,4.35555556 Z M9.94763158,4.35555556 L9.36868421,4.35555556 L9.36868421,0.296296296 L9.94763158,0.296296296 L9.94763158,4.35555556 Z" id="Shape"></path>
            </g>
        </g>
    </g>
</svg>