<?xml version="1.0" encoding="UTF-8" standalone="no"?>
<svg width="24px" height="24px" viewBox="0 0 24 24" version="1.1" xmlns="http://www.w3.org/2000/svg" xmlns:xlink="http://www.w3.org/1999/xlink">
    <!-- Generator: Sketch 45.2 (43514) - http://www.bohemiancoding.com/sketch -->
    <title>icLocation</title>
    <desc>Created with Sketch.</desc>
    <defs></defs>
    <g id="Symbols" stroke="none" stroke-width="1" fill="none" fill-rule="evenodd">
        <g id="icLocation">
            <g id="noun_144744_cc" transform="translate(4.000000, 0.000000)" fill-rule="nonzero" fill="#F33D41">
                <path d="M8.3,0 C3.75,0 0,3.7 0,8.3 C0,12.7 7.6,22.6 7.9,23 L8.3,23.5 L8.7,23 C9,22.6 16.6,12.7 16.6,8.3 C16.6,3.7 12.85,0 8.3,0 Z M8.3,4.85 C10.2,4.85 11.75,6.4 11.75,8.3 C11.75,10.2 10.2,11.75 8.3,11.75 C6.4,11.75 4.85,10.2 4.85,8.3 C4.85,6.4 6.4,4.85 8.3,4.85 Z" id="Shape"></path>
            </g>
            <rect id="bounds" x="0" y="0" width="24" height="24"></rect>
        </g>
    </g>
</svg>