<?xml version="1.0" encoding="UTF-8" standalone="no"?>
<svg width="24px" height="24px" viewBox="0 0 24 24" version="1.1" xmlns="http://www.w3.org/2000/svg" xmlns:xlink="http://www.w3.org/1999/xlink">
    <!-- Generator: Sketch 45.2 (43514) - http://www.bohemiancoding.com/sketch -->
    <title>icPhone</title>
    <desc>Created with Sketch.</desc>
    <defs></defs>
    <g id="Symbols" stroke="none" stroke-width="1" fill="none" fill-rule="evenodd">
        <g id="icPhone">
            <rect id="bounds" x="0" y="0" width="24" height="24"></rect>
            <g id="noun_993747_cc" transform="translate(2.000000, 2.000000)" fill-rule="nonzero" fill="#F33D41">
                <path d="M3.27027027,0.191780822 C3.13513514,0.164383562 2.97297297,0.164383562 2.86486486,0.219178082 C1.40540541,0.794520548 0.486486486,2.90410959 0.27027027,4.35616438 C-0.405405405,9.06849315 3.27027027,13.1506849 6.64864865,15.8356164 C9.64864865,18.2191781 15.4054054,22.1369863 18.8108108,18.3561644 C19.2432432,17.890411 19.7567568,17.2054795 19.7297297,16.5205479 C19.6486486,15.369863 18.5945946,14.5479452 17.7837838,13.9178082 C17.1621622,13.4520548 15.8648649,12.1643836 15.0540541,12.1917808 C14.3243243,12.2191781 13.8648649,12.9863014 13.4054054,13.4520548 L12.5945946,14.2739726 C12.4594595,14.4109589 10.7297297,13.260274 10.5405405,13.1232877 C9.83783784,12.6575342 9.16216216,12.1369863 8.56756757,11.5616438 C7.97297297,10.9863014 7.43243243,10.3561644 6.97297297,9.69863014 C6.83783784,9.50684932 5.72972973,7.83561644 5.83783784,7.69863014 C5.83783784,7.69863014 6.78378378,6.65753425 7.05405405,6.24657534 C7.62162162,5.36986301 8.05405405,4.68493151 7.40540541,3.64383562 C7.16216216,3.26027397 6.86486486,2.95890411 6.54054054,2.63013699 C5.97297297,2.08219178 5.40540541,1.50684932 4.75675676,1.04109589 C4.40540541,0.767123288 3.81081081,0.273972603 3.27027027,0.191780822 Z" id="Shape"></path>
            </g>
        </g>
    </g>
</svg>