<?xml version="1.0" encoding="UTF-8" standalone="no"?>
<svg width="35px" height="36px" viewBox="0 0 35 36" version="1.1" xmlns="http://www.w3.org/2000/svg" xmlns:xlink="http://www.w3.org/1999/xlink">
    <!-- Generator: Sketch 45.2 (43514) - http://www.bohemiancoding.com/sketch -->
    <title>logoBlack</title>
    <desc>Created with Sketch.</desc>
    <defs>
        <path d="M24.7908618,14.0279815 C22.340811,13.7157441 19.7598721,13.5414171 16.9393662,13.5414171 C14.1335576,13.5414171 11.5455966,13.7157441 9.09562752,14.0279815 C9.27534363,10.5816944 7.69366222,7.43082435 5.16612373,5.06438531 C5.23160866,4.99890038 5.4427608,5.17347241 5.79925355,5.29717523 C6.84072515,5.66224145 8.46184449,5.0861864 9.3283358,5.0861864 C10.8854399,5.0861864 12.1280205,6.27953077 12.1280205,7.72036243 C12.1280205,8.68075357 11.3874366,9.42297049 10.6016992,9.42297049 C10.310528,9.42297049 10.0267872,9.32115042 9.7939973,9.09546422 L10.3978957,8.04043838 L9.1754832,7.33463826 C9.00091117,7.64752882 8.83344286,8.04762376 8.83344286,8.44061496 C8.83344286,8.97902842 9.13179937,9.59762418 9.49572245,10.0123348 C10.6234186,11.2930469 12.5589799,10.4489282 13.5050003,11.4239351 C13.8686784,9.99771911 16.3208521,9.83041411 16.3208521,7.73481484 C16.3208521,6.80341017 16.0298442,6.17044366 15.2294094,5.69743347 L14.5236093,6.91266058 L15.5641011,7.50921029 C15.4040631,8.12045736 14.8656496,8.41873222 14.2835523,8.41873222 C13.1264615,8.41873222 12.56788,7.45107405 12.56788,6.33774866 C12.56788,5.53012847 12.8136526,4.78791154 13.3594964,4.26395049 C12.5444458,3.1143716 13.4613164,1.48443385 15.1493088,1.54991877 C15.2730933,0.494811282 16.1098632,0 16.9393662,0 C17.7762178,0 18.6276035,0.494811282 18.7366906,1.54991877 C20.4247646,1.48443385 21.3488206,3.1143716 20.5266663,4.26395049 C21.0651614,4.78791154 21.3181194,5.52277978 21.3181194,6.3232146 C21.3181194,7.48014217 20.8104071,8.41873222 19.6026103,8.41873222 C19.0204314,8.41873222 18.4820179,8.12045736 18.3218983,7.50921029 L19.3624717,6.91266058 L18.6565899,5.69743347 C17.8925719,6.14864257 17.5651473,6.75972634 17.5651473,7.73481484 C17.5651473,9.83041411 20.017321,9.99771911 20.3811624,11.4239351 C21.4652564,10.3106913 23.8592121,11.5767877 24.8269519,9.32115042 C24.9434694,9.05921072 25.0526381,8.76077256 25.0526381,8.44061496 C25.0526381,8.04762376 24.8852515,7.64752882 24.7105978,7.33463826 L23.4881037,8.04043838 L24.0920837,9.09546422 C23.8592121,9.32115042 23.5754713,9.42297049 23.2844635,9.42297049 C22.4986444,9.42297049 21.7579789,8.68075357 21.7579789,7.72036243 C21.7579789,6.2867978 23.0005594,5.0861864 24.5650939,5.0861864 C25.4159897,5.0861864 27.0485403,5.66117997 28.0868275,5.29717523 C28.4433202,5.17347241 28.6543907,4.99890038 28.7198756,5.06438531 C26.1979711,7.42568027 24.6109823,10.5744274 24.7908618,14.0279815 Z M24.9331812,15.2756245 C22.3419542,14.9353805 19.5912607,14.7783636 16.9393662,14.7783636 C14.35214,14.7783636 11.5950777,14.9282767 8.95453282,15.2683574 C8.97094487,15.1751925 8.98629546,15.0815376 9.00025795,14.9874745 C11.407278,14.6780133 14.158788,14.5091569 16.9393662,14.5091569 C19.7275379,14.5091569 22.4657386,14.6780949 24.886313,14.9876378 C24.9005204,15.0840688 24.9162793,15.1800916 24.9331812,15.2756245 Z M23.1680277,4.70054388 L22.4767617,3.49266544 L21.2616162,4.18401315 L21.9673347,5.39915862 L23.1680277,4.70054388 Z M12.6244648,4.18401315 L11.409401,3.49266544 L10.7108679,4.70789256 L11.9259317,5.39915862 L12.6244648,4.18401315 Z M31.7031957,31.6523265 C30.3643474,33.0421257 29.07645,33.1730955 27.8030867,33.1730955 C26.2459009,33.1730955 24.7978838,32.6928183 23.5972724,31.8778494 L24.9944203,30.4589821 C25.6784193,29.7750648 26.0348304,28.996431 26.1440808,27.897803 C26.3914864,27.541147 27.715719,26.9298999 29.4330244,26.9298999 C30.4663308,26.9298999 31.6377108,27.1627715 32.7872897,27.8104354 C32.7945567,27.9268711 32.7945567,28.0359583 32.7945567,28.1524757 C32.7945567,29.6076781 32.4089958,30.9173766 31.7031957,31.6523265 Z M22.5203638,30.9974773 L24.0630156,29.4475585 C24.601429,28.909145 24.8852515,28.2760969 24.8852515,26.9736654 L24.8852515,21.8219941 C24.8852515,21.1670632 25.0889733,20.8905894 25.3290303,20.6359167 C25.5255667,20.4393803 25.6784193,20.3520943 25.9039422,20.3230262 L25.9039422,27.1046352 C25.9039422,28.5598377 25.5765176,29.4621742 24.7906168,30.262609 L23.3644008,31.7178114 C23.0587773,31.4994739 22.7896522,31.3031008 22.5203638,30.9974773 Z M26.187683,25.5401824 C26.3841377,25.2637903 27.715719,24.6451129 29.4330244,24.6451129 C30.3133966,24.6451129 31.2957521,24.8053142 32.285293,25.2637903 C32.5473144,25.9841245 32.7000037,26.7335268 32.7656519,27.475662 C31.6158281,26.864415 30.4517151,26.6388921 29.4111417,26.6388921 C27.9267895,26.6388921 26.711644,27.0972866 26.187683,27.475662 C26.187683,27.3519592 26.187683,25.5401824 26.187683,25.5401824 Z M26.187683,20.2937947 L26.3623367,20.2937947 C27.4247112,20.2937947 29.4402098,21.385319 30.6190201,22.5640477 C31.273951,23.2190602 31.7905634,24.0339475 32.1325221,24.8925185 C31.193932,24.499609 30.2479117,24.3467564 29.3893406,24.3467564 C27.9121738,24.3467564 26.711644,24.7906984 26.187683,25.176341 L26.187683,20.2937947 Z M32.8091724,19.9664518 C31.3757711,18.5402358 29.2947875,17.6088311 27.8248878,17.7544167 L23.1680277,22.3967427 C22.7896522,22.7751182 22.4040097,23.5318692 22.4040097,24.4705409 L22.4040097,30.0660726 C22.4040097,30.2988625 22.3384431,30.5900336 22.2948409,30.7646057 C21.0432787,29.4184904 20.2865277,27.628433 20.2865277,25.6492695 C20.2865277,23.2990792 21.2324664,21.9238141 21.9018497,21.0142922 L22.0837705,20.7668866 C22.0910375,20.7523525 22.1056532,20.7303881 22.1056532,20.7160174 C22.1056532,20.6867859 22.0619694,20.708587 22.054784,20.7160174 C21.8655146,20.8468239 21.6181906,21.0943112 21.4289212,21.2688832 C20.1556395,22.4695763 17.8125529,24.6597286 17.8125529,27.8104354 C17.8125529,32.0525031 20.8469056,35.3196456 25.0889733,35.3196456 C27.2863926,35.3196456 28.996431,34.8757852 31.9288003,31.936149 C33.8934297,29.9714379 34.9994064,27.5265313 34.9994064,25.1618069 C34.9994064,23.2845452 34.308222,21.465338 32.8091724,19.9664518 Z M21.8363648,18.7149711 L22.8478701,17.7108145 L21.8363648,16.7066579 L20.8250228,17.7108145 L21.8363648,18.7149711 Z M25.7510896,17.7108145 L24.7542816,16.7066579 L23.750125,17.7108145 L24.7542816,18.7149711 L25.7510896,17.7108145 Z M1.30243148,34.9630712 C0.807538544,34.9630712 0.283740793,34.6575294 0.283740793,34.0899661 C0.283740793,33.6461874 0.567481586,33.2604632 1.011342,33.2604632 C1.54257009,33.2604632 2.16108419,33.8570945 2.80139939,34.3445571 C2.40114115,34.7084802 1.96446611,34.9630712 1.30243148,34.9630712 Z M17.2304556,17.6962805 C16.1243973,18.6784727 15.1566575,18.5548515 14.4144405,18.1400592 C13.8832941,17.8489697 13.5268014,17.5871117 13.2065621,17.5871117 C12.9373554,17.5871117 12.6972984,17.7907518 12.3988603,18.3074459 L8.18586064,25.5547981 L8.18586064,17.652515 C7.58196225,18.1691273 7.05073416,18.336514 6.56327156,18.336514 C5.74830268,18.336514 5.06430365,17.8708525 4.3730376,17.8708525 C4.00919617,17.8708525 3.64543639,17.9945553 3.25971221,18.3802795 L0.880372152,20.7596195 C0.38556087,21.2544308 0.058136243,21.7128253 0.058136243,22.571478 C0.058136243,23.6556536 0.916625652,24.3323856 1.70987509,24.3323856 C2.4594407,24.3323856 2.95417033,23.8083429 3.25252683,23.4954523 C3.44163293,23.3062646 3.60175255,23.0734747 3.60175255,22.8041863 C3.60175255,22.3750232 3.26706089,21.9310812 2.86680266,21.647422 L1.86264603,22.6805651 C2.24837021,22.9789216 2.43755795,23.2990792 2.43755795,23.5609373 C2.43755795,23.8519451 2.19741934,24.0557486 1.70987509,24.0557486 C1.03322475,24.0557486 0.341958688,23.488267 0.341958688,22.571478 C0.341958688,21.6399917 0.873105122,20.7668866 1.86999472,20.7668866 C2.61947867,20.7668866 3.41991349,21.2470821 4.22761534,21.2470821 C4.6713941,21.2470821 5.11525452,21.1014966 5.55184791,20.6577178 L7.90211984,18.2928302 L7.90211984,29.7095798 C7.90211984,30.9028426 7.56734653,31.5796562 6.91984596,32.2999904 C6.82512961,32.3799277 6.7160425,32.4163445 6.59960671,32.4163445 C6.31594757,32.4163445 5.98117426,32.2127044 5.60271712,31.9433343 C6.70877547,30.7281889 6.93438002,29.9934023 6.93438002,28.9600959 L6.93438002,21.6036565 C6.93438002,20.9633413 7.0726169,20.5485491 7.18905269,20.3156775 C7.21085379,20.2648083 7.31267386,20.104607 7.33455661,20.0828875 C7.3563577,20.0537378 7.37089176,20.0392037 7.36362473,20.0246696 C7.34182364,20.0027869 7.26907168,20.0537378 7.25453762,20.0682718 C7.21085379,20.0974216 7.15263589,20.1483725 7.08715097,20.2138574 L5.42814509,21.8437135 C4.4821247,22.7751182 4.4821247,23.568286 4.4821247,25.5547981 L4.4821247,31.1502482 C4.16213041,30.939341 3.7909403,30.7428046 3.39803074,30.7428046 C2.99777251,30.7428046 2.63409438,30.9537934 2.19741934,31.3903868 L0.37102681,33.216861 C0.130888199,33.456918 0,33.6897079 0,34.0899661 C0,34.8393684 0.669464967,35.2468937 1.30243148,35.2468937 C2.07379818,35.2468937 2.58298021,34.9266544 3.03418931,34.5192108 C3.41256481,34.7884992 3.7909403,34.984954 4.18384985,34.984954 C4.47493933,34.984954 4.75876177,34.8757852 5.04976959,34.5846958 L7.05800119,32.5764642 C7.05800119,32.5764642 8.18586064,31.6159914 8.18586064,29.7095798 L8.18586064,25.933092 L8.67340489,26.1877646 C10.4707293,27.1264363 11.4603519,27.6721168 11.4603519,33.0930765 L12.180686,33.8134924 C12.9446224,34.5846958 13.5922863,34.9194691 14.0505991,34.9194691 C14.2544026,34.9194691 14.4217076,34.8539841 14.698263,34.5774287 L16.5828734,32.6928183 C16.7429114,32.532862 16.8448131,32.4163445 16.903031,32.3363255 C16.9247505,32.3071758 16.9975841,32.198007 16.9975841,32.1471378 C16.9975841,32.1325221 16.9902354,32.1252551 16.98305,32.1252551 C16.9685159,32.1252551 16.9612489,32.1325221 16.9539819,32.1398708 C16.9175651,32.1762059 16.8738812,32.2127044 16.8302791,32.2417725 C16.728459,32.3071758 16.5609907,32.3799277 16.3354678,32.3799277 C16.0152285,32.3799277 15.5641011,32.2271568 15.0112352,31.6742093 L13.9778472,30.6409029 C13.9778472,24.7906984 12.7699687,24.4486581 10.0267872,22.9570389 L11.1328456,21.0724285 C11.2782678,20.8251045 11.409401,20.7377368 11.5621719,20.7377368 C11.9405474,20.7377368 12.3771408,21.3126487 13.104742,21.3126487 C13.5486841,21.3126487 14.0870159,21.0943112 14.792816,20.3885111 L16.9247505,18.2419609 C17.2885919,17.8781195 17.4341774,17.6671307 17.5142781,17.5216268 C17.5432646,17.4705943 17.4996624,17.4415261 17.4632456,17.4779429 C17.3905753,17.5434279 17.3104746,17.6307139 17.2304556,17.6962805 L17.2304556,17.6962805 Z" id="path-1"></path>
    </defs>
    <g id="Symbols" stroke="none" stroke-width="1" fill="none" fill-rule="evenodd">
        <g id="logoBlack">
            <g id="Group-2">
                <mask id="mask-2" fill="white">
                    <use xlink:href="#path-1"></use>
                </mask>
                <use id="Fill-1" fill="#000000" xlink:href="#path-1"></use>
            </g>
            <rect id="bounds" x="0" y="0" width="35" height="36"></rect>
        </g>
    </g>
</svg>