<?xml version="1.0" encoding="UTF-8" standalone="no"?>
<svg width="24px" height="24px" viewBox="0 0 24 24" version="1.1" xmlns="http://www.w3.org/2000/svg" xmlns:xlink="http://www.w3.org/1999/xlink">
    <!-- Generator: Sketch 45.2 (43514) - http://www.bohemiancoding.com/sketch -->
    <title>icExcursion</title>
    <desc>Created with Sketch.</desc>
    <defs></defs>
    <g id="Symbols" stroke="none" stroke-width="1" fill="none" fill-rule="evenodd">
        <g id="icExcursion">
            <path d="M0,2.8950029 L0,21.1049971 C0,22.701798 1.29979862,24 2.89655172,24 L6.62068966,24 L21.1034487,24 C22.700203,24 24.0000012,22.701798 24.0000012,21.1049971 L24.0000012,2.8950029 C24.0000012,1.29820201 22.700203,4.70176749e-14 21.1034487,4.70176749e-14 L2.89655172,4.70176749e-14 C1.29979862,0 0,1.29820201 0,2.8950029 Z M2.89655172,0.823529412 L21.1034487,0.823529412 C22.2557433,0.823529412 23.172415,1.73394118 23.172415,2.88235294 L23.172415,21.0127771 C23.172415,22.1611888 22.2557437,23.0716006 21.1034487,23.0716006 L2.89655172,23.0716006 C1.74425793,23.0716006 0.827586207,22.1611888 0.827586207,21.0127771 L0.827586207,2.88235294 C0.827586207,1.73394118 1.74425793,0.823529412 2.89655172,0.823529412 Z" id="Shape" fill="#8E9193" fill-rule="nonzero"></path>
            <g id="Group" transform="translate(5.000000, 5.000000)" fill-rule="nonzero" fill="#8E9193">
                <path d="M0,2.78571429 L0,12.6904762 C0,12.9126881 0.233561643,13.062507 0.443519777,12.9749735 L4.89806523,11.1178306 C5.01505554,11.0690562 5.09090909,10.9571516 5.09090909,10.8333333 L5.09090909,0.928571429 C5.09090909,0.7063595 4.85734745,0.556540591 4.64738931,0.644074154 L0.19284386,2.50121701 C0.0758535445,2.5499914 0,2.66189606 0,2.78571429 Z M4.45454536,1.39909144 L4.45454536,10.6228594 L0.636363655,12.2221476 L0.636363655,2.98661005 L4.45454536,1.39909144 Z" id="Shape"></path>
                <path d="M9.54545455,12.6904762 C9.54545455,12.9126881 9.31189293,13.062507 9.1019348,12.9749735 L4.64738931,11.1178306 C4.530399,11.0690562 4.45454545,10.9571516 4.45454545,10.8333333 L4.45454545,0.928571429 C4.45454545,0.7063595 4.6881071,0.556540591 4.89806523,0.644074154 L9.35261065,2.50121701 C9.46960102,2.5499914 9.54545455,2.66189606 9.54545455,2.78571429 L9.54545455,12.6904762 Z M5.09090919,10.6228594 L8.90909091,12.2221476 L8.90909091,2.98661005 L5.09090919,1.39909144 L5.09090919,10.6228594 Z" id="Shape"></path>
                <path d="M8.90909091,2.78571429 L8.90909091,12.6904762 C8.90909091,12.9126881 9.14265253,13.062507 9.35261065,12.9749735 L13.8071561,11.1178306 C13.9241465,11.0690562 14,10.9571516 14,10.8333333 L14,0.928571429 C14,0.7063595 13.7664384,0.556540591 13.5564803,0.644074154 L9.1019348,2.50121701 C8.98494444,2.5499914 8.90909091,2.66189606 8.90909091,2.78571429 Z M13.3636362,1.39909144 L13.3636362,10.6228594 L9.54545455,12.2221476 L9.54545455,2.98661005 L13.3636362,1.39909144 Z" id="Shape"></path>
            </g>
            <rect id="bounds" x="0" y="0" width="24" height="24"></rect>
        </g>
    </g>
</svg>