<?xml version="1.0" encoding="UTF-8" standalone="no"?>
<svg width="24px" height="24px" viewBox="0 0 24 24" version="1.1" xmlns="http://www.w3.org/2000/svg" xmlns:xlink="http://www.w3.org/1999/xlink">
    <!-- Generator: Sketch 45.2 (43514) - http://www.bohemiancoding.com/sketch -->
    <title>icHotel</title>
    <desc>Created with Sketch.</desc>
    <defs></defs>
    <g id="Symbols" stroke="none" stroke-width="1" fill="none" fill-rule="evenodd">
        <g id="icHotel">
            <path d="M0,2.8950029 L0,21.1049971 C0,22.701798 1.29979862,24 2.89655172,24 L6.62068966,24 L21.1034487,24 C22.700203,24 24.0000012,22.701798 24.0000012,21.1049971 L24.0000012,2.8950029 C24.0000012,1.29820201 22.700203,4.70176749e-14 21.1034487,4.70176749e-14 L2.89655172,4.70176749e-14 C1.29979862,0 0,1.29820201 0,2.8950029 Z M2.89655172,0.823529412 L21.1034487,0.823529412 C22.2557433,0.823529412 23.172415,1.73394118 23.172415,2.88235294 L23.172415,21.0127771 C23.172415,22.1611888 22.2557437,23.0716006 21.1034487,23.0716006 L2.89655172,23.0716006 C1.74425793,23.0716006 0.827586207,22.1611888 0.827586207,21.0127771 L0.827586207,2.88235294 C0.827586207,1.73394118 1.74425793,0.823529412 2.89655172,0.823529412 Z" id="Shape" fill="#8E9193" fill-rule="nonzero"></path>
            <g id="noun_1116430_cc" transform="translate(3.500000, 5.500000)" fill-rule="nonzero" fill="#8E9193">
                <path d="M16.7166667,6.41136364 L15.6966667,6.41136364 L15.6966667,1.32954545 C15.6966667,0.590909091 15.13,0 14.4216667,0 L2.57833333,0 C1.87,0 1.30333333,0.590909091 1.30333333,1.32954545 L1.30333333,6.38181818 L0.283333333,6.38181818 C0.113333333,6.38181818 0,6.5 0,6.67727273 L0,10.4 C0,10.5772727 0.113333333,10.6954545 0.283333333,10.6954545 L0.793333333,10.6954545 L0.793333333,12.7045455 C0.793333333,12.8818182 0.906666667,13 1.07666667,13 C1.24666667,13 1.36,12.8818182 1.36,12.7045455 L1.36,10.725 L15.64,10.725 L15.64,12.7045455 C15.64,12.8818182 15.7533333,13 15.9233333,13 C16.0933333,13 16.2066667,12.8818182 16.2066667,12.7045455 L16.2066667,10.725 L16.7166667,10.725 C16.8866667,10.725 17,10.6068182 17,10.4295455 L17,6.70681818 C17,6.52954545 16.8866667,6.41136364 16.7166667,6.41136364 Z M1.87,1.32954545 C1.87,0.915909091 2.18166667,0.590909091 2.57833333,0.590909091 L14.4216667,0.590909091 C14.8183333,0.590909091 15.13,0.915909091 15.13,1.32954545 L15.13,6.38181818 L1.87,6.38181818 L1.87,1.32954545 Z M16.4333333,10.1340909 L0.566666667,10.1340909 L0.566666667,7.00227273 L1.58666667,7.00227273 L15.4133333,7.00227273 L16.4333333,7.00227273 L16.4333333,10.1340909 Z M7.84833333,3.66363636 L2.60666667,3.66363636 C2.43666667,3.66363636 2.32333333,3.78181818 2.32333333,3.95909091 L2.32333333,5.64318182 C2.32333333,5.82045455 2.43666667,5.93863636 2.60666667,5.93863636 L7.84833333,5.93863636 C8.01833333,5.93863636 8.13166667,5.82045455 8.13166667,5.64318182 L8.13166667,3.95909091 C8.13166667,3.78181818 7.99,3.66363636 7.84833333,3.66363636 Z M7.565,5.34772727 L2.89,5.34772727 L2.89,4.25454545 L7.565,4.25454545 L7.565,5.34772727 Z M14.3933333,3.66363636 L9.15166667,3.66363636 C8.98166667,3.66363636 8.86833333,3.78181818 8.86833333,3.95909091 L8.86833333,5.64318182 C8.86833333,5.82045455 8.98166667,5.93863636 9.15166667,5.93863636 L14.3933333,5.93863636 C14.5633333,5.93863636 14.6766667,5.82045455 14.6766667,5.64318182 L14.6766667,3.95909091 C14.6766667,3.78181818 14.5633333,3.66363636 14.3933333,3.66363636 Z M14.11,5.34772727 L9.435,5.34772727 L9.435,4.25454545 L14.11,4.25454545 L14.11,5.34772727 Z" id="Shape"></path>
            </g>
            <rect id="bounds" x="0" y="0" width="24" height="24"></rect>
        </g>
    </g>
</svg>