<?xml version="1.0" encoding="UTF-8" standalone="no"?>
<svg width="24px" height="24px" viewBox="0 0 24 24" version="1.1" xmlns="http://www.w3.org/2000/svg" xmlns:xlink="http://www.w3.org/1999/xlink">
    <!-- Generator: Sketch 45.2 (43514) - http://www.bohemiancoding.com/sketch -->
    <title>icMuseum</title>
    <desc>Created with Sketch.</desc>
    <defs></defs>
    <g id="Symbols" stroke="none" stroke-width="1" fill="none" fill-rule="evenodd">
        <g id="icMuseum">
            <path d="M0,2.8950029 L0,21.1049971 C0,22.701798 1.29979862,24 2.89655172,24 L6.62068966,24 L21.1034487,24 C22.700203,24 24.0000012,22.701798 24.0000012,21.1049971 L24.0000012,2.8950029 C24.0000012,1.29820201 22.700203,4.70176749e-14 21.1034487,4.70176749e-14 L2.89655172,4.70176749e-14 C1.29979862,0 0,1.29820201 0,2.8950029 Z M2.89655172,0.823529412 L21.1034487,0.823529412 C22.2557433,0.823529412 23.172415,1.73394118 23.172415,2.88235294 L23.172415,21.0127771 C23.172415,22.1611888 22.2557437,23.0716006 21.1034487,23.0716006 L2.89655172,23.0716006 C1.74425793,23.0716006 0.827586207,22.1611888 0.827586207,21.0127771 L0.827586207,2.88235294 C0.827586207,1.73394118 1.74425793,0.823529412 2.89655172,0.823529412 Z M12.1551724,5.35294118 C12.0853448,5.36117647 12.0178759,5.39 11.9612069,5.42994118 L5.75431034,9.95935294 C5.47048552,10.1615294 5.65086207,10.71 6,10.7058824 L18.0000004,10.7058824 C18.3403034,10.7058824 18.5243379,10.1841765 18.2586211,9.97252941 L12.4655172,5.44311765 C12.3798041,5.37352941 12.2651301,5.34017647 12.1551724,5.35294118 Z M12.1939448,6.27941176 L16.7973931,9.88235294 L7.26722069,9.88235294 L12.1939448,6.27941176 Z M7.44825517,11.5294118 L7.44825517,16.8823653 L8.27584138,16.8823653 L8.27584138,11.5294118 L7.44825517,11.5294118 Z M11.5861862,11.5294118 L11.5861862,16.8823653 L12.4137724,16.8823653 L12.4137724,11.5294118 L11.5861862,11.5294118 Z M15.7241172,11.5294118 L15.7241172,16.8823653 L16.5517034,16.8823653 L16.5517034,11.5294118 L15.7241172,11.5294118 Z M5.93868353,17.7058947 C5.69958399,17.7347182 5.50549142,17.96613 5.53911879,18.1818947 C5.57272789,18.3972476 5.82801552,18.5598947 6.06711506,18.5294241 L17.939896,18.5294241 C18.1811463,18.5294241 18.3965414,18.3350712 18.3965414,18.1176594 C18.3965414,17.9002476 18.1811463,17.7030124 17.939896,17.7058947 L5.93868353,17.7058947 Z" id="Shape" fill="#8E9193" fill-rule="nonzero"></path>
            <rect id="bounds" x="0" y="0" width="24" height="24"></rect>
        </g>
    </g>
</svg>