<?xml version="1.0" encoding="UTF-8" standalone="no"?>
<svg width="30px" height="31px" viewBox="0 0 30 31" version="1.1" xmlns="http://www.w3.org/2000/svg" xmlns:xlink="http://www.w3.org/1999/xlink">
    <!-- Generator: Sketch 45.2 (43514) - http://www.bohemiancoding.com/sketch -->
    <title>logoWhite</title>
    <desc>Created with Sketch.</desc>
    <defs></defs>
    <g id="Symbols" stroke="none" stroke-width="1" fill="none" fill-rule="evenodd">
        <g id="logoWhite">
            <g id="Group-2" fill="#FFFFFF">
                <path d="M21.0894484,11.9335259 C19.0052038,11.6679073 16.8096134,11.5196083 14.4102247,11.5196083 C12.0233389,11.5196083 9.82177487,11.6679073 7.7375998,11.9335259 C7.8904833,9.00178864 6.54495571,6.32136099 4.39479276,4.30824444 C4.45050042,4.25253678 4.63012637,4.40104424 4.93339277,4.50627754 C5.81936688,4.81683734 7.1984441,4.32679051 7.93556344,4.32679051 C9.26018329,4.32679051 10.3172397,5.34196194 10.3172397,6.56766943 C10.3172397,7.38466884 9.68722906,8.01606865 9.01880657,8.01606865 C8.77110891,8.01606865 8.52973219,7.92945088 8.3316991,7.73746088 L8.8454321,6.83995626 L7.80553258,6.23953602 C7.65702513,6.50571028 7.51456077,6.84606882 7.51456077,7.18038425 C7.51456077,7.6384096 7.76837099,8.16464557 8.07795833,8.51743761 C9.03728318,9.60693223 10.6838544,8.88884518 11.4886287,9.71827809 C11.7980077,8.5050041 13.8840582,8.36267867 13.8840582,6.57996401 C13.8840582,5.78762324 13.6364994,5.24916214 12.955574,4.846775 L12.3551537,5.88056196 L13.2402943,6.38804348 C13.1041509,6.90802797 12.6461256,7.16176873 12.1509386,7.16176873 C11.1666078,7.16176873 10.6914257,6.3385873 10.6914257,5.39148758 C10.6914257,4.70444956 10.900503,4.07304975 11.3648493,3.62731899 C10.6714904,2.64937862 11.4514671,1.26279963 12.8874328,1.31850729 C12.9927356,0.420933209 13.7045711,0 14.4102247,0 C15.1221297,0 15.8463988,0.420933209 15.9391986,1.31850729 C17.3752338,1.26279963 18.161323,2.64937862 17.461921,3.62731899 C17.9200158,4.07304975 18.1352057,4.69819808 18.1352057,5.37912353 C18.1352057,6.36331539 17.7032977,7.16176873 16.6758317,7.16176873 C16.1805753,7.16176873 15.72255,6.90802797 15.5863371,6.38804348 L16.4715471,5.88056196 L15.8710574,4.846775 C15.2211115,5.23061608 14.9425732,5.75046164 14.9425732,6.57996401 C14.9425732,8.36267867 17.0286237,8.5050041 17.3381416,9.71827809 C18.2603743,8.77124783 20.2968992,9.84830894 21.1201501,7.92945088 C21.2192708,7.70662023 21.3121401,7.45274054 21.3121401,7.18038425 C21.3121401,6.84606882 21.1697452,6.50571028 21.0211683,6.23953602 L19.9811993,6.83995626 L20.4950018,7.73746088 C20.2968992,7.92945088 20.0555225,8.01606865 19.8079638,8.01606865 C19.1394718,8.01606865 18.5093917,7.38466884 18.5093917,6.56766943 C18.5093917,5.34814396 19.5664481,4.32679051 20.8973889,4.32679051 C21.6212412,4.32679051 23.010043,4.81593435 23.8933081,4.50627754 C24.1965745,4.40104424 24.376131,4.25253678 24.4318386,4.30824444 C22.2864685,6.31698495 20.9364259,8.99560662 21.0894484,11.9335259 Z M21.2105188,12.9948889 C19.0061763,12.7054452 16.6661766,12.5718718 14.4102247,12.5718718 C12.2092858,12.5718718 9.86386819,12.6994021 7.61757132,12.9887068 C7.63153297,12.9094519 7.64459162,12.8297802 7.65646944,12.7497613 C9.70410806,12.4865044 12.0448023,12.3428592 14.4102247,12.3428592 C16.7821069,12.3428592 19.111479,12.4865738 21.1706482,12.7499002 C21.1827344,12.8319335 21.1961403,12.9136196 21.2105188,12.9948889 Z M19.7089125,3.99872656 L19.1208563,2.97119109 L18.0871388,3.55931675 L18.6874896,4.59303424 L19.7089125,3.99872656 Z M10.7395621,3.55931675 L9.70591405,2.97119109 L9.11167583,4.00497804 L10.1453239,4.59303424 L10.7395621,3.55931675 Z M26.9697325,26.9264583 C25.8307817,28.1087527 24.7351745,28.2201681 23.6519314,28.2201681 C22.3272421,28.2201681 21.095422,27.8115989 20.0740686,27.1183094 L21.2626145,25.9112869 C21.8444886,25.3294822 22.1476856,24.6671028 22.2406243,23.732506 C22.4510909,23.4291007 23.5776082,22.9091162 25.0385104,22.9091162 C25.9175384,22.9091162 26.9140248,23.1072188 27.8919652,23.6581829 C27.8981472,23.7572341 27.8981472,23.8500339 27.8981472,23.9491547 C27.8981472,25.1870873 27.5701527,26.3012405 26.9697325,26.9264583 Z M19.1579484,26.3693817 L20.4702737,25.0508744 C20.928299,24.5928491 21.1697452,24.0543185 21.1697452,22.9463473 L21.1697452,18.5638491 C21.1697452,18.006703 21.3430502,17.7715083 21.5472653,17.5548597 C21.7144578,17.3876673 21.8444886,17.3134135 22.0363397,17.2886854 L22.0363397,23.0577626 C22.0363397,24.2956952 21.7578014,25.0633079 21.08924,25.7442334 L19.875966,26.982166 C19.6159738,26.7964275 19.3870305,26.6293739 19.1579484,26.3693817 Z M22.2777164,21.7268913 C22.4448394,21.491766 23.5776082,20.9654606 25.0385104,20.9654606 C25.7874381,20.9654606 26.6231225,21.1017429 27.4649194,21.491766 C27.6878195,22.1045503 27.8177115,22.7420627 27.873558,23.3733931 C26.8954093,22.8534086 25.9051049,22.6615575 25.0198948,22.6615575 C23.7571647,22.6615575 22.7234472,23.0515111 22.2777164,23.3733931 C22.2777164,23.2681598 22.2777164,21.7268913 22.2777164,21.7268913 Z M22.2777164,17.2638184 L22.4262933,17.2638184 C23.3300494,17.2638184 25.0446229,18.1923721 26.0474303,19.19511 C26.6045764,19.7523255 27.0440557,20.4455456 27.334958,21.1759272 C26.5365047,20.8416812 25.7317304,20.7116504 25.0013488,20.7116504 C23.7447312,20.7116504 22.7234472,21.0893094 22.2777164,21.4173734 L22.2777164,17.2638184 Z M27.9105807,16.9853496 C26.6911942,15.7720756 24.920913,14.9797348 23.6704774,15.1035836 L19.7089125,19.0527846 C19.3870305,19.3746665 19.0589666,20.0184304 19.0589666,20.8169532 L19.0589666,25.5770409 C19.0589666,25.775074 19.0031895,26.0227717 18.9660973,26.1712791 C17.9014003,25.0261463 17.2576364,23.5033544 17.2576364,21.8196911 C17.2576364,19.8203973 18.0623412,18.6504669 18.6317819,17.8767416 L18.7865408,17.666275 C18.7927229,17.653911 18.8051564,17.635226 18.8051564,17.6230009 C18.8051564,17.5981339 18.7679948,17.6166799 18.7618822,17.6230009 C18.6008718,17.7342773 18.3904746,17.9448133 18.2294642,18.0933208 C17.1462905,19.1147437 15.1530398,20.9778941 15.1530398,23.6581829 C15.1530398,27.2668863 17.7343467,30.0462263 21.3430502,30.0462263 C23.2123826,30.0462263 24.6671028,29.6686367 27.161653,27.1679045 C28.8329523,25.4965357 29.7738006,23.4166672 29.7738006,21.4050093 C29.7738006,19.8080332 29.1858138,18.2604438 27.9105807,16.9853496 Z M18.5760742,15.920722 L19.4365562,15.0664915 L18.5760742,14.2122611 L17.7157312,15.0664915 L18.5760742,15.920722 Z M21.9063088,15.0664915 L21.0583299,14.2122611 L20.2040994,15.0664915 L21.0583299,15.920722 L21.9063088,15.0664915 Z M1.10797122,29.7428905 C0.686968553,29.7428905 0.241376716,29.4829677 0.241376716,29.0001448 C0.241376716,28.6226247 0.482753432,28.2944912 0.860343024,28.2944912 C1.31225581,28.2944912 1.83842232,28.8020422 2.38313489,29.216724 C2.04263744,29.5263113 1.67116041,29.7428905 1.10797122,29.7428905 Z M14.6578529,15.0541275 C13.7169352,15.8896729 12.8936843,15.7845091 12.2622845,15.4316476 C11.8104412,15.1840194 11.5071748,14.9612582 11.234749,14.9612582 C11.0057363,14.9612582 10.8015212,15.1344938 10.5476415,15.5740425 L6.96366617,21.7393248 L6.96366617,15.0168964 C6.44993316,15.4563757 5.99802038,15.5987706 5.58333865,15.5987706 C4.89004916,15.5987706 4.30817498,15.2026349 3.72011879,15.2026349 C3.4106009,15.2026349 3.10115248,15.3078682 2.77301907,15.6360016 L0.748927699,17.660093 C0.32799449,18.0810262 0.049456179,18.4709799 0.049456179,19.2014309 C0.049456179,20.1237331 0.77976835,20.6994253 1.45458124,20.6994253 C2.09223254,20.6994253 2.51309629,20.253625 2.76690651,19.9874508 C2.92777801,19.8265098 3.06399089,19.6284767 3.06399089,19.3993946 C3.06399089,19.034308 2.77927055,18.6566489 2.4387731,18.4153417 L1.58454263,19.2942307 C1.91267605,19.548041 2.07361701,19.8203973 2.07361701,20.0431584 C2.07361701,20.2907172 1.86933243,20.4640917 1.45458124,20.4640917 C0.878958552,20.4640917 0.290902356,19.9813382 0.290902356,19.2014309 C0.290902356,18.4090207 0.742745677,17.666275 1.59079412,17.666275 C2.22837595,17.666275 2.9093014,18.0747747 3.59640888,18.0747747 C3.97392901,18.0747747 4.3515186,17.9509259 4.72292617,17.5734058 L6.72228945,15.561609 L6.72228945,25.2737745 C6.72228945,26.2888765 6.43749966,26.8646381 5.88667452,27.4774224 C5.80609984,27.5454246 5.71330005,27.5764042 5.61424877,27.5764042 C5.37294151,27.5764042 5.08815172,27.4031687 4.76620033,27.1740171 C5.70711802,26.1402996 5.89903856,25.5152207 5.89903856,24.6361927 L5.89903856,18.3781106 C5.89903856,17.833398 6.01663591,17.4805365 6.11568719,17.282434 C6.13423326,17.2391598 6.22085103,17.1028775 6.23946656,17.0844009 C6.25801262,17.0596033 6.27037667,17.0472393 6.26419465,17.0348752 C6.24564858,17.0162597 6.1837589,17.0596033 6.17139485,17.0719674 C6.13423326,17.0967649 6.08470762,17.1401085 6.02899995,17.1958162 L4.61769287,18.5823257 C3.81291859,19.3746665 3.81291859,20.0494099 3.81291859,21.7393248 L3.81291859,26.4993431 C3.54070122,26.3199255 3.22493185,26.1527331 2.89068588,26.1527331 C2.55018842,26.1527331 2.24080946,26.3322201 1.86933243,26.7036277 L0.315630446,28.2573991 C0.111345864,28.4616142 0,28.6596473 0,29.0001448 C0,29.6376572 0.569510128,29.9843366 1.10797122,29.9843366 C1.76416859,29.9843366 2.19732692,29.7119109 2.58116799,29.3653009 C2.90304992,29.594383 3.22493185,29.761506 3.55917782,29.761506 C3.80680602,29.761506 4.0482522,29.6686367 4.29581094,29.4210085 L6.0042024,27.7126171 C6.0042024,27.7126171 6.96366617,26.8955482 6.96366617,25.2737745 L6.96366617,22.0611373 L7.37841735,22.2777859 C8.90739125,23.0763087 9.74925766,23.540516 9.74925766,28.1520964 L10.3620419,28.7649501 C11.0119184,29.4210085 11.5628824,29.7057983 11.9527666,29.7057983 C12.1261411,29.7057983 12.2684665,29.6500907 12.5037307,29.4148265 L14.1069583,27.8115989 C14.2431017,27.6755249 14.3297889,27.5764042 14.3793146,27.5083325 C14.3977912,27.4835349 14.4597503,27.3906657 14.4597503,27.3473915 C14.4597503,27.334958 14.4534988,27.328776 14.4473863,27.328776 C14.4350222,27.328776 14.4288402,27.334958 14.4226582,27.3412095 C14.3916786,27.3721196 14.354517,27.4031687 14.3174249,27.4278967 C14.2308071,27.4835349 14.0883428,27.5454246 13.8964917,27.5454246 C13.6240659,27.5454246 13.2402943,27.4154632 12.7699744,26.9450738 L11.8908769,26.0660458 C11.8908769,21.0893094 10.8633414,20.7983376 8.52973219,19.5294254 L9.47064989,17.9261978 C9.5943598,17.7158007 9.70591405,17.6414775 9.83587544,17.6414775 C10.1577574,17.6414775 10.5291649,18.1305519 11.1481312,18.1305519 C11.5257903,18.1305519 11.9837462,17.9448133 12.5841664,17.3443931 L14.3977912,15.5183348 C14.7073091,15.2088169 14.8311579,15.0293299 14.8992991,14.9055505 C14.9239577,14.8621375 14.8868656,14.8374094 14.855886,14.868389 C14.7940658,14.9240966 14.7259246,14.9983503 14.6578529,15.0541275 L14.6578529,15.0541275 Z" id="Fill-1"></path>
            </g>
            <rect id="bounds" x="0" y="0" width="30" height="31"></rect>
        </g>
    </g>
</svg>